# xmcd
#
# Track frame offsets: 
#        150
#        19492
#        38284
#        56840
#        74167
#        96236
#        109497
#        128801
#        141738
#        155848
#        175096
#        195172
#        209633
#        229693
#        248728
#        265386
#        278299
#        299027
#        310305
#        329320
#
# Disc length: 4693 seconds
#
# Revision: 3
# Processed by: cddbd v1.5.2PL0 Copyright (c) Steve Scherf et al.
# Submitted via: ExactAudioCopy v1.0b3
#
DISCID=3d125314
DTITLE=Gary Moore - All The Best
DYEAR=2013
DGENRE=Blues
TTITLE0=Out In The Fields
TTITLE1=Still Got The Blues
TTITLE2=Wishing Well
TTITLE3=Woke Up This Morning
TTITLE4=Separate Ways
TTITLE5=Walking By Myself
TTITLE6=Empty Room
TTITLE7=Since I Met You Baby
TTITLE8=I Loved Another Woman
TTITLE9=Wild Frontier
TTITLE10=Ready For Love
TTITLE11=Johnny Boy
TTITLE12=Cold Day In Hell
TTITLE13=Friday On My Mind
TTITLE14=All Your Love
TTITLE15=Too Tired
TTITLE16=Story Of The Blues
TTITLE17=Dont You Lie To Me(I Get Evil)
TTITLE18=Run For Cover
TTITLE19=Parisienne Walkways (Live '93)
EXTD=YEAR: 2012
EXTT0=
EXTT1=
EXTT2=
EXTT3=
EXTT4=
EXTT5=
EXTT6=
EXTT7=
EXTT8=
EXTT9=
EXTT10=
EXTT11=
EXTT12=
EXTT13=
EXTT14=
EXTT15=
EXTT16=
EXTT17=
EXTT18=
EXTT19=
PLAYORDER=
